<?xml version="1.0" encoding="UTF-8"?>
<svg id="Layer_1" xmlns="http://www.w3.org/2000/svg" version="1.1" viewBox="0 0 144 144">
  <!-- Generator: Adobe Illustrator 29.4.0, SVG Export Plug-In . SVG Version: 2.1.0 Build 152)  -->
  <defs>
    <style>
      .st0 {
        fill: #fff;
      }
    </style>
  </defs>
  <path class="st0" d="M86.26,140.46c-7.25,1.9-14.95,2.67-22.89,2.13,7.74,1.3,15.69,1.14,23.41-.31-.17-.61-.34-1.21-.52-1.82Z"/>
  <path class="st0" d="M127.95,109.57c-7.93,13.01-20.12,23.13-34.6,28.62.23.77.46,1.54.67,2.31,9.69-2.92,18.75-7.94,26.24-14.74,4.7-4.26,8.66-8.88,11.92-13.75-1.43-.79-2.84-1.6-4.24-2.44Z"/>
  <path class="st0" d="M122.17,31.42c1.84-1.46,3.68-2.91,5.52-4.37C116.82,13.63,100.91,3.83,81.08,1.14,26.34-5.86-15.95,48.54,5.84,99.58c3.26,7.44,7.89,14.26,13.52,20.07-9.98-12.39-15.75-28.09-15.71-44C3.21,39.47,32.59,8.51,68.72,7.52c21.16-.82,40.62,8.64,53.45,23.89Z"/>
  <path class="st0" d="M126.61,37.33c6.38,9.53,10.38,20.79,11.05,32.93.69,11.81-1.61,22.92-6.2,32.74,1.49.9,3,1.77,4.53,2.61,12.39-23.55,9.86-51.44-3.95-72.59-1.81,1.43-3.63,2.87-5.44,4.31Z"/>
  <path class="st0" d="M43.33,140.37c.08-.01.06-.11-.04-.19-.02-.09-.08.02-.28.25-.12.22-.26.34-.5.39-.3.16-.32.06-.43-.11-.21-.25-.39-.32-.26-.05.12.17.07.38-.04.2-.1-.08-.46.18-.44.28q.02.09-.08.01c-.08.02-.32.06-.65.03-.56.11-.65.03-.72-.35-.05-.28-.21-.25-.16.03l-.04.2-.19-.16q-.27-.14-.4.08t-.16.03c-.04-.19-.12-.17-.3.15-.12.22-.34.36-.34.36-.08.02-.19-.16-.31-.33-.23-.35-.41-.41-.45-.21-.1.31-.5.39-.62.21-.02-.09-.12-.17-.18-.06-.16.03-.24.05-.34-.03-.12-.17-.37-.22-.34-.03q.02.09-.08.01c-.1-.08-.18-.06-.24.05-.16.03-.35-.13-.39-.32-.05-.28-.21-.25-.43-.11-.14.12-.22.14-.34-.03q-.1-.08-.08.02c.02.09-.04.2-.12.22l-.24.05q-.08.02-.1-.08c-.02-.09-.11-.17-.19-.16l-.24.05c-.02-.09-.1-.08-.18-.06-.16.03-.18-.06-.21-.25s-.07-.38-.15-.36c0,0-.2.23-.33.45q-.18.33-.14.12c-.07-.38-.19-.55-.42-.51-.08.02-.14.12-.04.2.15.36-.32.06-.55-.29-.12-.17-.21-.25-.39-.32-.18-.06-.39-.32-.5-.49-.13-.27-.35-.52-.44-.6l-.21-.25c-.02-.09-.19-.16-.35-.13-.32.06-.41-.02-.49-.4-.04-.19-.13-.27-.31-.33-.18-.06-.26-.05-.24.05-.06.11-.57.01-.51-.1-.04-.19-.21-.25-.43-.11-.38.17-.59-.08-.68-.56q-.01-.49-.46-.7c-.18-.06-.45-.21-.49-.4-.1-.08-.19-.16-.27-.14-.08.01-.18-.06-.19-.16-.04-.19-.05-.28-.13-.27q-.08.01-.06.11c.02.09-.14.12-.32.06q-.1-.08-.05-.28c.15-.52.02-2.06-.14-2.03-.08.02-.19-.16-.25-.44l-.19-.55-.32.06c-.48.09-.94-.21-.84-.53.04-.2.03-.3-.19-1.44l-.04-1.07c.06-.11.04-.2-.15-.36-.12-.17-.21-.25-.12-.17q.08-.01.06-.11c-.1-.08-.04-.19.03-.3.2-.23.21-.63.09-.8-.27-.14-.23-.35.1-.31l.4-.08c.06-.11.3-.16.54-.2.48-.09.65-.03,1.23.85.25.44.36.62.32.82l.11.57c.04.19-.03.3-.1.31,0,0-.06.11-.03.3.05.28.15.36.21.25.22-.14.32-.06.35.13-.06.11.05.28.15.36.1.08.21.25.23.35q.05.28.41.41c.26.05.35.13.47.3.04.19.13.27.23.35l.1.08c.02.09.21.25.95.7.12.17.29.24.45.21l.24-.05c.26.05.53.19.58.48q.04.19.19.16.14-.12.18.06.04.19.34.03c.24-.05.32-.06.51.1l.31.33c.1.08.27.14.34.03,0,0,.16-.03.26.05l.37.22c.08-.01.34.03.45.21.1.08.27.14.35.13.08-.02.16-.03.18.06,0,0,.1.08.26.05.1.08.18.06.19.16l.35.13c.32-.06.75.05.77.15s.1.08.18.06c.08-.02.16-.03.18.06.18.06.69.16,1.07,0,.24-.05.49,0,.77.15.26.05.43.11.41.02.08-.02.16-.03.18.06.12.17.35.13.49,0,.06-.11.28-.25.46-.18.32-.06.46-.19.52-.29.14-.12.28-.25.36-.26l.5-.39c.06-.11.22-.14.22-.14.08-.01.22-.14.26-.34.12-.22.18-.33.34-.36.16-.03.24-.04.22-.14-.12-.17.31-.94.55-.99.16-.03.14-.12.12-.22-.02-.09.03-.3.09-.41.16-.03.2-.23.17-.42-.02-.09.04-.2.12-.22l.06-.11c-.02-.09.04-.2.12-.22.06-.11.12-.22.1-.31-.02-.09.03-.3.15-.52.12-.22.26-.34.44-.28.16-.03.28-.25.07-.5q-.12-.17,0-.39.06-.11-.02-.09c-.06.11-.14.12-.16.03-.04-.19.23-.53.45-.67.24-.05.34-.36.31-.55-.08.01-.02-.09.04-.2.08-.02.14-.12.14-.12l.2-.23c.14-.12.25-.44.31-.55-.04-.19.09-.41.09-.41l.1-.31c-.02-.09.12-.22.18-.33.16-.03.2-.23.25-.44.06-.11.09-.41.23-.53q.12-.22.3-.15.18.06.12-.22c-.12-.17-.13-.27-.05-.28.08-.02.06-.11.04-.2q-.12-.17.04-.2c.08-.01.14-.12.2-.23v-.39s.13-.22.13-.22c-.05-.28.15-1.4.23-1.42.16-.03.39-.56.27-.74-.02-.09-.04-.19.12-.22.06-.11.12-.22.11-.31-.02-.09,0-.39.13-.61.12-.22.21-.63.17-.82.04-.2.1-.31.18-.33l.09-.41.11-.31s.12-.22.17-.42c.04-.2.15-.52.29-.64.08-.01.12-.22.1-.31-.08.02-.02-.09.06-.11.08-.02.06-.11-.01-.49-.02-.09.04-.2.12-.22-.02-.09.04-.2.04-.2-.1-.08-.05-.28.03-.3.06-.11.1-.31.15-.52-.04-.19,0-.39-.01-.49l.12-.22q-.07-.38,0-.39c.08-.02.14-.12.18-.33.12-.22.18-.33.07-.5-.12-.17-.09-.47.06-.99.06-.11.09-.41.13-.61-.04-.19,0-.39.15-.52.12-.22.17-.42.13-.61l.03-.69c.04-.2.09-.41.07-.5q-.02-.09.06-.11s.04-.2,0-.39c.03-.3.24-.93.41-.86.1.08.09-.41-.03-.58-.1-.08.02-.79.09-.8q.08-.02.06-.11c-.02-.09.03-.3.09-.41.04-.2.15-.52.11-.71.07-.5.22-1.02.36-1.15.16-.03.14-.13.07-.5.04-.2.14-1.01.22-1.02.08-.01.06-.11.04-.2-.02-.09.03-.3.1-.31q.08-.01.03-.3c-.05-.28-.01-.49.08-.9l.21-.63c-.07-.38.22-1.02.44-1.16.06-.11.12-.22.11-.31-.08.02-.02-.09-.02-.09q.08-.01-.02-.09c-.08.02-.19-.55-.13-.66.08-.01.06-.11.04-.2-.04-.19-.05-.28,0-.39l.03-.69c-.05-.28.03-.69.02-.79.06-.11.12-.22.11-.31-.02-.09.03-.3.09-.41.04-.2.05-.6.06-.99-.05-.68.13-1.49.27-1.62-.02-.09.04-.2.03-.3-.04-.19.06-.99.12-1.1l.03-.69.09-.8c.04-.2.15-.52.11-.71.07-.5.24-.93.44-1.16q.04-.2-.05-.28c-.18-.06-.22-.74,0-.88.06-.11.09-.41.08-.9-.06-.77.1-2.08.35-2.52-.02-.09.07-.5.06-.99-.01-.49.06-.99.04-1.09l.09-.8c.04-.2.05-.6.11-.71l.09-.41c-.04-.19-.05-.68.03-.69.08-.01.06-.11.03-.3-.04-.19.03-.3.09-.41,0,0,.06-.11-.04-.19-.04-.19,0-1.28.17-1.7.06-.11.05-.6.08-.9-.1-.96-.04-1.95.06-2.27l.02-.79c-.07-.38.02-.79.07-1.39.09-.41.16-.91.14-1.01-.02-.09-.04-.19.03-.3.08-.02.07-.5.04-1.09-.06-1.17.01-1.67.07-1.78,0,0,.06-.11.04-.2-.04-.19,0-.88.1-1.2.04-.2.07-.5.03-.69-.04-.19,0-.39-.03-.58.06-.11.1-.31.07-.5-.04-.19-.07-.38-.01-.49.06-.11.07-.5.03-.69-.02-.09.04-.2,0-.39.04-.2.05-.6,0-.88-.05-.28-.03-.58-.03-.58.08-.01.17-.42.07-.5-.02-.09.04-.2.18-.33.12-.22.1-.31,0-.39-.1-.08-.07-.38-.06-1.17.07-.5.12-1.1.08-1.29-.02-.09-.01-.49.03-.69-.04-.19-.05-.68,0-.88l-.16-.85.07-.5c.06-.11.12-.22.11-.31s.03-.3.07-.5l.09-.8c-.05-.28-.03-.58-.06-.77.06-.11,0-.39-.03-.58q-.09-.47-.31-.33l-.4.08c.02.09-.06.11-.12.22-.06.11-.14.12-.22.14-.02-.09-.1-.08-.16.03.02.09-.06.11-.18-.06q-.19-.16-.41-.02c-.14.12-.18.33-.18.33.02.09-.04.2-.2.23-.06.11-.3.15-.36.26q-.16.03-.19-.16c0-.39-.07-.38-.34-.03-.2.23-.3.15-.29-.24-.04-.19-.05-.28-.35-.13-.24.05-.32.06-.43-.11-.1-.08-.19-.16-.27-.14-.06.11-.03.69.02.98.04.19-.03.3-.1.31l-.24.04c-.06.11-.14.12-.16.03q-.1-.08-.24.05l-.2.23c.02.09-.23.53-.31.55-.08.01-.1-.08-.12-.17-.02-.09-.13-.27-.23-.35q-.18-.06-.24.05c.02.09.04.19.13.27.1.08.17.46,0,.39l-.06.11c.02.09-.04.2-.12.22l-.63.12q-.24.04-.29-.24c-.02-.09-.12-.17-.21-.25-.08.01-.18-.06-.18-.06-.02-.09-.1-.08-.08.01-.06.11-.12.22-.2.23-.08.02,0,.39.25.44.19.16.15.36.01.49-.14.12-.18.33-.23.53.02.09-.04.2-.12.22-.08.01-.22.14-.28.25-.06.11-.22.14-.46.18-.1-.08-.24.05-.32.06.02.09-.46.19-.63.12-.02-.09-.08.02-.06.11-.06.11-.04.2-.12.22-.02-.09-.08.01-.14.12-.15.52-.29.64-.53.69q-.26-.05-.2.23c.04.19.05.28-.03.3-.08.01-.1-.08-.1-.08q-.02-.09-.1-.08c.02.09-.08.01-.18-.06-.18-.06-.27-.14-.34-.03.02.09-.06.11-.08.01-.1-.08-.22.14-.51.78-.23.53-.4.47-.45-.21.03-.3-.01-.49-.09-.47-.16.03-.26.34-.19.72,0,.39-.07.5-.31.55-.08.02-.1-.08-.1-.08.04-.2-.31-.33-.37-.22.02.09-.16.03-.35-.13-.29-.24-.35-.13-.28.25.05.28-.09.41-.26.34-.35-.13-.59-.08-.56.11-.06.11-.04.2.04.19.08-.01.04.19-.03.3l.05.68c0,.39-.17.82-.25.44-.05-.28-.23-.35-.55-.29-.24.05-.32.06-.28.25.02.09.05.28-.03.3.02.09.12.17.19.16.16-.03.18.06-.17.42-.18.33-.39.56-.37.66l-.18.33c.12-.22-.15-.36-.29-.24-.06.11-.22.14-.24.05q-.16.03-.11.31c.04.19.05.28.19.16q.08-.02-.04.2c-.04.2-.11.31-.09.41s-.22.14-.24.04c-.12-.17-.24.05-.4.47-.17.42-.37.66-.58.4-.12-.17-.18-.06-.04.2.07.38.01.49-.13.61l-.4.08c-.22.14-.28.25-.18.33q.04.19-.12.22c-.08.02-.16.03-.14.12.02.09-.14.12-.3.15-.16.03-.3.15-.3.15.02.09-.11.31-.23.53-.12.22-.25.44-.23.53.02.09-.06.11-.14.12-.1-.08-.24.05-.36.26-.2.23-.18.33-.09.41.1.08.04.19-.09.41-.06.11-.2.23-.22.14-.04-.19-.18-.06-.2.23.02.09-.04.2-.14.12-.26-.05-.64.51-.65.91l.04.19q.02.09-.08.02c-.02-.09-.1-.08-.16.03-.08.02-.06.11.04.19.18.06.15.36,0,.39-.08.02-.16.03-.22.14.02.09-.16.03-.19-.16-.05-.28-.21-.25-.34-.03-.06.11-.22.14-.38.17l-.24.05c.02.09-.14.12-.2.23-.38.17-.53.69-.52,1.18.05.28,0,.39-.09.41-.08.02-.14.12-.2.23-.06.11-.2.23-.3.16-.08.01-.22.14-.34.36-.04.2-.26.34-.26.34-.16.03-.14.12-.03.3.05.28.07.38-.11.71q-.25.44-.72.53c-.4.08-.48.09-.44.28.04.19-.03.3-.25.44-.22.14-.28.25-.25.44.04.19,0,.39-.09.41l-.16.03c-.08.02,0,.39.07.38.18.06.17.46.01.49,0,0-.12.22-.17.42-.09.41-.21.63-.39.56-.18-.06-.34.36-.35.75-.03.3-.05.6-.11.71-.04.2-.07.5-.05.6.04.19-.03.3,0,.39-.06.11-.12.22-.04.2.02.09,0,.39-.17.42-.02-.09-.08.01-.1.31.07.38-.3,1.04-.41.86-.1-.08-.11-.57-.03-.58.16-.03.23-.53.11-.71-.02-.09.03-.3.09-.41.14-.13.12-.22-.03-.58-.15-.36-.17-.46-.06-.77.15-.52.13-.61-.11-.57-.18-.06-.46.18-.42.37,0,0,.02.09-.06.11-.08.01-.04.2,0,.39,0,.39-.07.5-.15.52-.02-.09-.06.11-.03.3-.06.11-.03.3-.1.31l-.11.31c.04.19-.03.3-.1.31l-.18.33c-.1.31-.09.41.03.58q.12.17.05.28s-.12.22-.17.42q-.03.3.27.54c.29.24.56.78.44,1,.02.09-.04.2-.03.3.02.09-.04.2-.1.31-.08.01-.14.12-.17.42.04.19-.03.3-.1.31l-.12.22c.02.09-.04.2-.12.22,0,0-.04.2-.03.3.05.28,0,.39-.07.5-.08.02-.14.12-.12.22.02.09-.04.2-.11.31-.14.12-.2.23-.18.33.02.1.04.19-.03.3-.14.12-.17.42-.03.69.12.17.04.19-.09.41-.14.12-.28.25-.36.26-.08.01-.14.12-.09.41s.07.38.01.49c-.08.01-.14.12-.06.11l.22,1.14c.14.76.2,1.04.14,1.15q-.04.2.15.36l.21.25-.24.05c-.06.11-.3.15-.36.26-.32.06-.38.17-.26.34.13.27.03.58-.17.82-.28.25-.65.03-.47-.3.08-.02.06-.11-.02-.09-.1-.08-.55.59-.53.69.02.09.1.08.18.06,0,0,.18.06.21.25.1.08.19.16.26.05.3-.15.38-.17.61.18.23.35.28.63.08.87-.14.12-.12.22.05.68.07.38.13.66.06.77-.04.2-.03.3.15.36.1.08.19.16.13.27.02.09.12.17.21.25.08-.02.19.16.23.35s.42.9.63,1.16c.1.08.25.44.3.73.17.46.27.54.42.51.08-.02.19.16.25.44.12.17.17.46.27.54.1.08.23.35.25.44l.37,1.11.61,1.94c.12.17.13.27-.07.5-.33.45-.48.48-.78.24l-.19-.16-.3.15q-.36.26-.56.11c-.16.03-.27-.14-.27-.14-.02-.09-.1-.08-.1-.08-.08.02-.18-.06-.27-.14-.08.01-.18-.06-.18-.06-.06.11-.26-.05-.29-.24-.02-.09-.13-.27-.31-.33s-.27-.14-.29-.24l-.19-.16c-.08.01-.18-.06-.18-.06-.02-.09-.13-.27-.33-.43l-.33-.43c-.02-.09-.12-.17-.21-.25-.29-.24-.52-.59-.75-.94-.23-.35-.41-.41-.49-.4-.08.01-.21-.25-.25-.44-.13-.27-.25-.44-.41-.41-.08.02-.18-.06-.19-.16-.02-.09-.21-.25-.41-.41-.21-.25-.41-.41-.42-.51l-.33-.43c-.21-.25-.41-.41-.44-.6-.02-.09-.13-.27-.33-.43-.18-.06-.29-.24-.31-.33l-.21-.25c-.18-.06-.31-.33-.35-.52-.12-.17-.21-.25-.19-.16-.08.02-.21-.25-.42-.51-.13-.27-.35-.52-.33-.43-.16.03-.39-.32-.46-.7-.02-.09-.12-.17-.19-.16-.08.02-.18-.06-.29-.24-.12-.17-.23-.35-.33-.43-.1-.08-.12-.17-.13-.27.08-.02-.02-.09-.1-.08-.02-.09-.12-.17-.13-.27-.02-.09-.04-.19-.12-.17-.08.02-.1-.08-.12-.17,0,0-.02-.09-.1-.08-.08.01-.66-.86-.73-1.23-.04-.19-.15-.36-.25-.44-.19-.16-.74-1.33-.87-1.99-.13-.27-.15-.36-.23-.35-.08.01-.1-.08-.28-.63l-.31-.33q-.12-.17-.05-.28c.3-.15.59-.8.58-1.29.03-.69.33-1.73.53-1.96.14-.12.18-.33.18-.33-.13-.27.03-.69.27-.74.14-.12.22-.14.12-.22-.02-.1.09-.8.17-.82.08-.02.06-.11.06-.11-.02-.09.09-.41.21-.63.12-.22.25-.44.23-.53-.02-.09.04-.2.1-.31l.12-.22c-.02-.09.15-.52.38-1.05.06-.11.12-.22.11-.31-.04-.19.12-.22.22-.14q.1.08.04-.2c-.04-.19,0-.39.19-.72.18-.33.31-.55.39-.56,0,0,.14-.13.26-.34.18-.33.25-.44.19-.72s-.07-.38.07-.5c.08-.01.28-.25.47-.58.12-.22.32-.45.32-.45.08-.02.16-.03.14-.12-.04-.19.95-1.94,1.12-1.88.08-.01.26-.34.23-.53-.04-.19.04-.2.2-.23.08-.02.06-.11.12-.22-.02-.09-.04-.19.04-.2,0,0,.2-.23.31-.55l.4-.47c.24-.05.5-.39.39-.56-.02-.09.33-.85.49-.88l.06-.11c-.04-.19.21-.63.37-.66,0,0,.08-.02.06-.11-.02-.09.23-.53.43-.77.14-.12.2-.23.18-.33l.12-.22c.22-.14.51-.78.41-.86-.19-.16-.17-.46-.03-.58.06-.11.22-.14.22-.14.08-.01.34-.36.65-.91.14-.12.3-.15.35.13-.08.02-.06.11.02.09.08-.01.14-.12.03-.3-.12-.17-.13-.27.13-.61.18-.33.32-.45.42-.37q.1.08.06-.11c-.02-.09.04-.2.12-.22.16-.03.42-.37.39-.56-.04-.19.15-.52.25-.44.02.09.26-.34.31-.55.04-.2.75-1.22.91-1.25,0,0,.14-.12.18-.33.06-.11.12-.22.36-.26.16-.03.24-.05.22-.14l.2-.23.14-.12-.41-.41.42-.37c.22-.14.42-.37.48-.48.08-.02.2-.23.18-.33q.04-.2.14-.12c.02.09.18.06.24-.04.16-.03.24-.05.26.05.04.19.18.06.22-.14.04-.2.11-.31.12-.22,0,0,.06-.11.04-.2.08-.02.14-.12.22-.14.08-.02.06-.11.04-.2-.25-.44-.27-.54-.13-.66l.24-.05c.12.17,1.3-.54,1.24-.82l.06-.11c.08-.01.14-.12.2-.23l.4-.47c.28-.25.34-.36.25-.44q-.04-.19.06-.11.19.16.32-.06c.06-.11.09-.41.07-.5q.04-.2.16-.03c.1.08.18.06.64-.51.26-.34.55-.59.55-.59.16-.03.81-.94.79-1.03l.12-.22q.06-.11.08-.02c.04.19.12.17.32-.06.42-.37.55-.59.43-.77-.04-.19.26-.34.44-.28.08-.01.22-.14.28-.25.04-.2.12-.22.24-.05q.18.06.16-.03c-.04-.19.12-.22.36-.26l.11-.31c-.02-.09.04-.2.12-.22.02.09.16-.03.22-.14.08-.01.14-.12.22-.14.02.09.08-.01.08-.01l.47-.58c.5-.39.89-.95.87-1.05-.02-.09.35-.75.43-.77l.2-.23q.2-.23.3-.15c.12.17.19.16.3-.16.18-.33.33-.45.44-.28.1.08.18.06.32-.06.14-.12.3-.15.38-.17.08-.02.06-.11-.04-.19q-.05-.28.2-.23c.24-.05.32-.06.3-.15s.41-.86.49-.88c.02.09.04.19-.03.3-.28.25.15.36.49,0,.06-.11.22-.14.24-.05.08-.01.65-.03.63-.12,0,0-.02-.09.06-.11-.02-.09-.12-.17-.19-.16q-.1-.08.14-.12c.06-.11.36-.26.66-.42l.68-.32c.16-.03.32-.06.3-.15-.02-.09.06-.11.12-.22.24-.05.66-.42.72-.53,0,0,.3-.15.62-.21.46-.18.54-.2.65-.03q.19.16.34.03l.4-.47c.22-.14.34-.36.34-.36-.02-.09.38-.17.4-.08q.1.08.22-.14c.12-.22.26-.34.3-.15.02.09.1.08.16-.03.22-.14.84-.35,1.01-.29q.1.08.22-.14c.12-.22.18-.33.28-.25.08-.01.14-.12.2-.23-.02-.09.06-.11.08-.01,0,0,.1.08.18.06.18.06.16-.03.12-.22q-.02-.09.06-.11c.08-.01.1.08.1.08.04.19.99,0,1.13-.12-.02-.09.06-.11.18.06q.1.08.16-.03c.04-.2.34-.36.38-.17.02.09.26.05.24-.05s.22-.14,1.01-.29c.16-.03.26.05.34.03.12.17.16-.03.1-.31-.04-.19-.05-.28,0-.39.08-.01.1.08.13.27q.05.28.29.24c.38-.17.69-.72.6-1.19-.04-.19-.05-.28-.13-.27-.16.03-.49-.4-.52-.59-.05-.28.31-.55.47-.58.1.08.24-.04.3-.15.06-.11.14-.12.24-.05.08-.01.24-.04.38-.17.3-.15.38-.17.4-.08.1.08.18.06.24-.05.06-.11.22-.14.3-.15.1.08.26.05.51.1.16-.03.49,0,.77.15.18.06.43.11.41.02.08-.01.26.05.53.19.27.14.61.18.61.18.08-.02.18.06.26.05.1.08.19.16.35.13.41.02,1.22.36,1.33.53,0,0,.1.08.26.05.08-.01.24-.05.26.05.08-.01.34.03.69.16.26.05.69.16.88.32l.61.18c.16-.03.34.03.43.11.08-.01.18.06.26.05.08-.02.16-.03.18.06.08-.01.26.05.43.11.59.08,1.04.29,1.16.47l.19.16c.08-.01.18.06.66.46l.31.33c.04.19.15.36.25.44.1.08.21.25.23.35.04.19.13.27.13.27q.1.08.05.28c-.04.2.01.49.07.38.06-.11.29.24.31.33-.08.01-.04.2.05.28.1.08.11.17.07.38-.04.2-.03.3,0,.39.1.08,0,.39-.39.56-.14.12-.36.26-.48.48-.22.14-.2.23-.15.52.13.27.06.77-.06.99-.08.01-.06.11-.04.2.04.19,0,.39-.07.5.04.19,0,.39.01.49l-.05.6c-.12.22-.17.42-.15.52l.04.19-.07.5s.04.19-.03.3c-.06.11,0,.39-.05.6l.13.66c-.06.11-.03.3-.09.41-.04.2-.11.31-.09.41,0,0-.06.11-.04.2-.08.02-.2.23-.23.53-.04.2-.17.42-.25.44-.06.11-.04.2-.03.3.08-.02.04.19-.03.3-.12.22-.1.31.03.58.07.38.09.47-.13.61-.14.12-.2.23-.17.42s.05.28,0,.39c-.08.01-.04.2-.03.3.13.27.15.36-.07.5q-.14.12-.04.2c.1.08.12.17.04.19-.06.11-.07.5-.04,1.09.04.19,0,.39-.05.6-.12.22-.17.42-.13.61v.39c-.07.11-.13.22,0,.49q.05.28-.1.31c-.08.01-.14.12-.2.23.05.28-.19.72-.35.75-.1-.08-.08.01-.06.11.05.28-.04,1.09-.18,1.21-.08.01-.06.11-.04.2.02.09,0,.39-.07.5-.04.2-.07.5-.03.69.05.28-.03.3-.18.33-.24.05-.18.33.2.65.12.17.21.25.17.46.02.09.04.19.12.17.26.05.19.16.03.58-.12.22-.15.52-.17.82l-.09.41c-.16.03-.39.56-.33.85q-.03.3-.34.36-.26-.05-.2.23c.04.19.05.28-.03.3-.08.01.01.49.33,1.31.3.73.2,1.04-.2,1.12-.34-.03-.38.17-.1.31.29.24.56.78.4.81-.16.03-.26.34-.21.63v.39c-.09.01-.13.22-.11.31.02.09-.04.2-.04.2-.08.01-.22.14-.26.34-.1.31-.15.52-.07,1.39-.04.2-.1.31-.18.33q-.16.03-.1.31c.15.36.09.47-.1.31-.19-.16-.24.05-.21.63.09.47.11.57-.02.79l-.2.23.31.33c.29.24.31.33.27.54-.08.02-.03.3.01.49.15.36.09.47-.03.69-.06.11-.09.41-.07.5.05.28-.09.41-.48.48-.16.03-.22.14-.18.33-.03.3.07.38.36.62.33.43.48.79.28,1.03-.06.11-.04.2,0,.39.1.08.05.28,0,.39-.12.22-.17.42,0,.39.16-.03.29.24.35.52.13.66.23,1.62.16,1.73-.08.01-.06.11-.04.2l-.06.11c-.16.03-.14.12-.07.5.04.19.01.49.03.58-.04.2.01.49.05.68.01.49-.02.79-.33.85-.16.03-.37.66-.31.94.02.09-.06.11-.22.14-.26-.05-.24.05-.2.23.02.09-.04.2-.04.2-.16.03-.26.34-.23.53.02.09-.03.3-.15.52-.04.2-.15.52-.13.61l-.07.5c-.06.11-.1.31-.09.41-.05.6-.27,1.62-.43,1.65-.02-.09-.08.01.02.09,0,0,.04.19-.03.3-.06.11-.09.41-.05.6l-.09.41c-.08.01-.06.11-.04.2.1.08.12.17.04.19-.14.12-.31.94-.26,1.23.02.09-.04.2-.04.2-.06.11-.17.82-.16.91v.39c-.18.82-.21,1.51-.14,1.89-.03.3-.05.6-.13.61v.39c.03.19-.02.39-.14.61-.06.11-.09.41-.13.61.05.28.01.49.01.49.02.1,0,.39-.05.6l-.07.5c-.06.11-.03.3,0,.39.04.19.05.28-.03.3-.08.02-.06.11-.06.11.02.09-.03.3-.09.41-.1.31-.16.91-.12,1.1.02.09-.04.2-.04.2-.16.03-.14.13-.07.5.02.1-.04.2-.1.31-.14.12-.2.23-.11.31q.04.19-.1.31c-.08.02-.14.12-.12.22.04.19-.03.3-.09.41.02.09-.04.2.04.19.12.17.06.77-.06.99-.04.2-.15.52-.17.82-.05.6-.11.71-.21.63-.18-.06-.34-.03-.24.05.13.27.22.74.08.87-.14.12-.12.22-.07.5.07.38.01.49-.03.69-.06.11-.1.31-.07.5.04.19-.03.3-.03.3-.08.02-.06.11-.03.3.04.19-.03.3-.09.41-.06.11-.12.22-.04.2.02.09.04.19-.03.3-.06.11-.11.31-.09.41-.06.11-.12.22-.28.25q-.16.03-.04.2c.13.27.16.85.06,1.17-.06.11-.1.31-.09.41.02.09-.04.2-.11.31-.08.01-.04.2,0,.39.05.28-.03.3-.23.53-.14.12-.2.23-.17.42.04.19-.03.3-.09.41-.08.02-.14.12-.12.22.05.28-.14,1.01-.28,1.13-.08.02-.14.12-.18.33.01.49-.2,1.12-.38,1.05-.08.02-.16.03-.06.11.02.09-.03.3-.15.52-.18.33-.21.63-.3,1.04l-.18.33c-.08.02-.12.22-.17.42l-.19.72c-.12.22-.23.53-.21.63-.04.2-.1.31-.2.23-.08.02-.14.13-.18.33.02.09-.09.41-.13.61-.37.66-.68,1.21-.66,1.3l-.12.22c-.08.02-.22.14-.18.33l-.25.44-.2.23c.02.09-.06.11-.14.12-.16.03-.39.56-.37.66.02.09-.03.3-.15.52-.12.22-.17.42-.17.42q.02.09-.06.11c-.08.01-.14.12-.2.23-.06.11-.2.23-.28.25-.08.02-.14.12-.1.31.04.19-1.39,2.62-1.49,2.54-.08.02-.06.11-.12.22-.1.31-.41.86-.57.89-.08.02-.16.03-.14.12.02.09-.04.2-.2.23-.06.11-.2.23-.18.33-.06.11-.38.17-.4.08s-.08.02-.06.11c-.03.3-.23.53-.34.36l-.19-.16c-.16.03-.04.2.15.36.19.16.13.27-.03.3-.16.03-.22.14-.22.14.02.09-.08.02-.26-.05l-.21-.25-.2.23c-.14.12-.2.23-.28.25-.08.01-.14.12-.22.14-.1.31-.93.27-1.01-.1q-.02-.09-.16.03l-.2.23c-.18.33-.78.64-.98.48l-.37-.22q-.18-.06-.24.05c-.06.11-.04.2.05.28q.04.19-.2.23c-.08.01-.32.06-.38.17-.4.08-1.24-.06-1.2-.26ZM19.36,78.53q-.02-.09-.1-.08c-.08.02-.12.22-.11.31.08-.01.22-.14.2-.23ZM24.72,65.16c-.02-.09-.04-.19-.12-.17q-.08.02.02.09c.02.09-.06.11-.14.12l-.06.11c.12.17.27.14.3-.15ZM25.49,81.78c-.02-.09.04-.2.04-.2.08-.02.1.08.12.17-.06.11-.03.3,0,.39q.02.09-.08.02c-.02-.09-.13-.27-.07-.38ZM26.14,63.12c-.08.01-.14.12-.14.12.12.17.27.14.26.05.04-.2-.04-.19-.12-.17ZM27.09,61.18c-.1-.08-.26-.05-.24.05,0,0,.04.19-.04.2q.04.19.18.06c.14-.12.2-.23.1-.31ZM30.55,134.94c.06-.11-.04-.19-.12-.17,0,0-.06.11-.04.2,0,0,.02.09.1.08l.06-.11ZM31.22,71.28q-.07-.38.27-.74c.14-.13.34-.36.33-.45.04-.2.22-.14.26.05.05.28.09.47-.11.71-.2.23-.26.34-.32.06q.06-.11-.02-.09c-.08.02-.12.22-.1.31.04.19-.13.61-.21.63s-.12-.17-.09-.47ZM38.28,137.6l-.19-.16c-.08.02-.06.11.04.19l.19.16c.08-.02.06-.11-.04-.19ZM41.01,57.85c-.02-.09.04-.2.04-.2.08-.01.18.06.19.16.02.09-.04.2-.12.22,0,0-.1-.08-.11-.17ZM42.34,136.04c-.04-.19-.18-.06-.14.12q-.04.2.1.08c-.02-.09.04-.2.04-.2ZM44.57,129.15c-.08.01-.16.03-.06.11.04.19.29.24.26.05-.02-.09-.12-.17-.19-.16ZM44.93,140.16l-.21-.25q-.19-.16-.16.03c.04.19.23.35.31.33q.08-.01.06-.11ZM45.3,138.23c-.02-.09-.04-.19-.11-.17-.16.03-.12.22.05.28q.1.08.06-.11ZM45.55,138.67c-.02-.09.03-.3.17-.42.06-.11.12-.22.04-.2-.02-.09-.1-.08-.1-.08-.08.02-.43.77-.39.96.04.19.26.05.28-.25ZM45.69,129.43c-.04-.19-.29-.24-.26-.05l-.06.11c.08-.02.16-.03.18.06.08-.02.16-.03.14-.12ZM45.59,131.9c-.08.02-.22.14-.2.23q.02.09.08-.02c.08-.01.16-.03.26.05-.12-.17-.13-.27-.13-.27ZM46.34,53.02c-.19-.16-.29-.24-.41-.02-.06.11.04.19.29.24.35.13.41.02.12-.22ZM49.94,112.35c-.02-.09-.1-.08-.1-.08-.08.02-.14.13-.14.13.02.09.12.17.18.06l.06-.11ZM52.03,41.84l-.19-.16.04.19c.04.19.23.35.37.22-.02-.09-.12-.17-.21-.25ZM52.7,113.49c-.02-.09-.1-.08-.1-.08-.08.02-.16.03-.14.12.02.09.1.08.18.06,0,0,.08-.02.06-.11ZM53.43,47.07c-.04-.19-.19-.16-.18-.06l-.06.11c.08-.01.16-.03.18.06q.16-.03.06-.11ZM55.23,38.78c.06-.11.14-.12.16-.03,0,0-.06.11-.04.2q-.14.12-.16.03c-.02-.09-.04-.19.04-.2ZM55.37,62.09c-.18-.06-.26-.05-.14.12.05.28.15.36.18.06.06-.11-.04-.19-.04-.19ZM55.49,110.02c-.12-.17-.29-.24-.26-.05.02.09.19.16.27.14q.08-.02-.02-.09ZM57.93,99.46q-.08.02-.06.11.02.09-.06.11c-.02-.09-.08.01-.08.01-.03.3.13.27.18.06.06-.11.04-.2.03-.3ZM58.84,103.4c-.02-.09-.1-.08-.18-.06-.08.02-.16.03-.06.11.02.09.1.08.18.06,0,0,.08-.02.06-.11Z"/>
  <path class="st0" d="M51.87,129.33l-.08.02-.02-.08.1.06ZM94.53,112.7c-.17-.04-.35-.09-.36-.17-.02-.08-.1-.06-.41,0-.55.12-1.04.14-1.23.02-.02-.08-.27-.11-.5-.05-.17-.04-.41,0-.43-.07-.02-.08-.1-.06-.17-.04-.14.11-1.18-.15-1.82-.43-.27-.11-.38-.25-.32-.34q-.02-.08-.25-.03c-.37.16-.86.19-.82.01l-.27-.11c-.23.05-.25-.03-.19-.12q-.03-.16-.1-.06t-.08.02s-.1-.06-.08.02c-.16.03-1.02-.19-1.74-.44-.25-.03-.43-.07-.52-.13-.08.02-.17-.04-.29-.18-.1-.06-.27-.11-.35-.09,0,0-.08.02-.1-.06-.02-.08-.19-.12-.36-.17-.17-.04-.36-.17-.38-.25l-.19-.12c-.08.02-.27-.11-.46-.23-.27-.11-.52-.13-.62-.2-.16.03-.43-.07-.62-.19l-.38-.25c-.16.03-.36-.17-.38-.25q-.02-.08-.08.02c-.08.02-.1-.06-.19-.12-.02-.08-.11-.14-.19-.12,0,0-.1-.06-.11-.14-.03-.16-.05-.23-.19-.12,0,0-.08.02-.17-.04l-.19-.12c-.33-.01-.46-.23-.34-.42.14-.11.12-.19.03-.25-.17-.04-.24.05-.2.21.02.08-.04.17-.04.17-.16.03-1.3-.7-1.53-.98-.1-.06-.19-.12-.17-.04.02.08-.25-.03-.55-.29-.29-.18-.56-.29-.57-.37-.24.05-1.19-.56-1.43-.92-.02-.08-.11-.14-.11-.14-.08.02-.1-.06-.1-.06-.02-.08-.11-.14-.11-.14-.08.02-.17-.04-.3-.26-.03-.16-.15-.3-.4-.32-.19-.12-.46-.23-.59-.45-.21-.2-.4-.32-.4-.32-.08.02-.19-.12-.3-.26-.13-.22-.32-.34-.32-.34-.1-.06-.19-.12-.21-.2-.03-.16-.05-.23-.13-.22l-.21-.2q-.11-.14.03-.25.06-.1-.02-.08c-.16.03-.54-.21-.57-.37l-.1-.06c-.24.05-.43-.48-.33-.75q.06-.1-.16.03c-.31.07-.39.08-.5-.05-.1-.06-.11-.14,0-.41s.11-.27.01-.33c-.08.02-.17-.04-.19-.12-.02-.08-.11-.14-.21-.2-.19-.12-.55-1.03-.49-1.12.08-.02.16-.03.25.03.02.08.1.06.17.04q-.02-.08-.11-.14c-.08.02-.1-.06-.03-.16-.02-.08-.05-.24-.15-.3q-.1-.06-.03-.16c.06-.1-.03-.16-.13-.22-.1-.06-.21-.2-.24-.36q-.05-.23-.19-.12c-.12.19-.2.21-.23.05-.02-.08.04-.17.12-.19.14-.11.17-.36-.1-.47-.19-.12-.44-.89-.54-1.36.03-.25.01-.33-.08-.39-.17-.04-.21-.2-.31-.67,0-.41-.04-.57-.12-.55-.14.11-.26-.44-.17-.78.12-.19.07-.43-.06-1.05-.14-.63-.19-.86-.25-.77.02.08-.06.1-.16.03-.02-.08.04-.17.12-.19.06-.09.04-.17-.03-.16-.1-.06-.21-.61-.14-.63.06-.1.09-.35-.08-1.13-.2-.94-.24-1.1-.18-1.19s.12-.19.11-.27c-.02-.08-.03-.16.03-.25.08-.02.06-.1.04-.17-.1-.06-.11-.14-.03-.16.06-.1-.03-.16-.15-.3q-.13-.22-.08-.39.14-.11.03-.25c-.1-.06-.04-.57.12-.6.08-.02.06-.1.03-.25q-.13-.22.09-.35c.06-.1.22-.13.3-.15q.16-.03.14-.11c-.02-.08.12-.19.2-.21.14-.11.12-.19.04-.17-.09-.06-.17-.04-.31.07-.06.1-.14.11-.22.13-.1-.06.08-.76.25-1.12l.09-.35c-.02-.08-.03-.16.03-.25q.06-.1.16-.03.1.06.06-.1c-.07-.31.16-1.51.32-1.55,0,0,.12-.19.15-.44.04-.17.17-.36.23-.46.06-.1.12-.19.11-.27-.02-.08-.05-.24.01-.33v-.41q.02-.25.19-.21c.21.2.97-.05.86-.19-.02-.08.03-.25.15-.44s.17-.36.09-.35c-.17-.04-.3-.26-.26-.44l.21-.54c.04-.17.18-.29.26-.3.02.08.08-.02.06-.1-.11-.14.44-1,.64-1.2.06-.1.12-.19.11-.27-.08.02-.02-.08.06-.1,0,0,.08-.02.06-.1l.07-.43c.07-.43,1.1-2.12,1.26-2.16,0,0,.12-.19.23-.46.19-.62.64-1.21.72-1.22.02.08.08-.02-.02-.08q-.03-.16.11-.27c.08-.02.14-.11.14-.11-.02-.08.04-.17.18-.29.06-.1.12-.19.11-.27-.1-.06-.03-.16.03-.25.08-.02.12-.19.17-.36.11-.27.17-.36.4-.42.3-.15.36-.24.34-.32l-.07-.31q-.05-.23.11-.27c.1.06.16-.03.08-.02-.02-.08.35-.65.49-.76l.18-.29c.03-.25.29-.55.45-.59.08-.02.14-.11.12-.19.03-.25.41-.75.51-.68.16-.03.39-.49.23-.46-.17-.04.03-.25.2-.21.08-.02.06-.1.04-.17-.03-.16.03-.25.17-.36.16-.03.22-.13.2-.21-.1-.06.24-.79.32-.81.08-.02.26-.3.25-.38-.02-.08.06-.1.24-.05q.1.06.06-.1c-.1-.06-.05-.24.13-.52.12-.19.31-.48.39-.49l.25-.38c.04-.17.49-.76.55-.86.08-.02.4-.42,1.08-1.46.25-.38.57-.78.57-.78.08-.02.06-.1.14-.11.09-.35.7-1.3.78-1.32l.06-.1c-.03-.16.54-.94.83-1.08l.2-.21c-.08.02-.03-.16.12-.19l.11-.27c-.02-.08.03-.25.17-.36.12-.19.32-.4.52-.61.12-.19.29-.55.51-.68l.25-.38c-.02-.08.12-.19.26-.3l.39-.49c.12-.19.26-.3.32-.4.16-.03.22-.13.22-.13-.03-.16.15-.44.64-1.21.26-.3.59-.7.63-.87.26-.3.53-.61.56-.45q.02.08.1.06c.08-.02.06-.1-.03-.16-.02-.08.29-.55.92-1.43.12-.19.45-.59.55-.86.18-.29.38-.49.38-.49.08-.02.22-.13.28-.22-.02-.08.12-.19.12-.19.08-.02.14-.11.26-.3.06-.1.2-.21.28-.22l.06-.1c-.02-.08.11-.27.25-.38.06-.1.18-.29.17-.36,0,0,.06-.1.14-.11.06-.1.18-.29.29-.55l.74-1.14c.26-.3.45-.59.59-.7.08-.02.12-.19.12-.19-.02-.08.11-.27.25-.38s.34-.32.46-.51l.25-.38c.08-.02.2-.21.32-.4.12-.19.38-.49.52-.61.08-.02.22-.13.2-.21-.02-.08.06-.1.14-.11.24-.05.5-.35.39-.49-.08.02-.03-.16.11-.27.14-.11.39-.49.59-.7.18-.29.4-.42.48-.43,0,0,.06-.1.04-.17.06-.1.18-.29.32-.4s.26-.3.26-.3c-.02-.08.06-.1.14-.11l.06-.1c-.03-.16.59-.7.66-.72.02.08.08-.02-.02-.08-.02-.08-.03-.16.04-.17.08-.02.28-.22.46-.51.06-.1.12-.19.22-.13q.16-.03.12-.19c-.02-.08.03-.25.17-.36l.2-.21c-.02-.08.06-.1.14-.11.08-.02.14-.11.18-.29.06-.1.12-.19.2-.21.1.06.16-.03.08-.02-.02-.08.18-.69.3-.89l.34-.32c.08-.02.14-.11.18-.29l.12-.19q.16-.03.06-.1-.1-.06.06-.1c.25.03.31-.07.56-.45.18-.29.31-.48.39-.49.08-.02.14-.11.12-.19.04-.17.18-.29.31-.48.22-.13.42-.34.4-.42.03-.25.25-.38.34-.32,0,0,.08-.02.14-.11l.39-.49c.12-.19.38-.49.52-.61.12-.19.18-.29.26-.3.02.08.26-.3.21-.54l-.05-.23c-.1-.06-.11-.14-.13-.22.04-.17.3-.15.57-.04.1.06.27.11.43.07s.24-.05.27.11q.03.16.19.12c.14-.11,1.14.33,1.27.55.02.08.11.14.11.14.08-.02.25.03.36.17.19.12.36.17.36.17.08-.02.1.06.11.14l.21.2c.1.06.19.12.21.2,0,0,.11.14.29.18.29.18.89.71.93.87.02.08.34.42.62.6l.21.2c.02.08.13.22.32.34.21.2.34.42.34.42.02.08.03.16.11.14l.21.2.34.42c.17.04.32.34.43.48.13.22.32.34.32.34.08-.02.34.42.29.59,0,0,.1.06.17.04.17.04.51.46.67.84.05.24.08.39.16.37.1.06.07.31-.05.5-.08.02-.06.1.07.31.11.14.22.28.24.36.08-.02.11.14.15.3q.07.31-.31.48c-.44.26-.91.36-1.08.32-.1-.06-.19-.12-.33-.01q-.16.03-.27-.11c-.03-.16-.11-.14-.25-.03-.16.03-.3.15-.38.16.02.08-.06.1-.14.11-.1-.06-.08.02-.08.02.02.08.03.16-.04.17s-.14.11-.26.3c-.04.17-.18.29-.32.4s-.2.21-.11.27c0,0-.06.1-.28.22-.24.05-.56.45-.45.59.03.16-.15.44-.32.4-.08.02-.14.11-.17.36-.11.27-.09.35-.4.42-.14.11-.28.22-.34.32,0,0-.14.11-.3.15s-.22.13-.28.22c.02.08-.03.25-.18.29l-.12.19c.03.16-.23.46-.46.51-.08.02-.14.11-.2.21.02.08-.04.17-.04.17-.43-.07-.5-.05-.45.18-.06.1-.09.35-.17.36-.06.1-.17.36-.19.62-.04.58-.3.89-.71.89q-.39.08-.4.42c-.03.25-.17.36-.37.57l-.4.42c-.12.19-.26.3-.34.32-.08.02-.14.11-.14.11.02.08-.09.35-.19.62-.2.21-.31.48-.31.48.02.08-.06.1-.06.1-.08.02-.22.13-.34.32-.12.19-.26.3-.34.32,0,0-.12.19-.23.46-.18.29-.25.38-.34.32-.16.03-.22.13-.46.51v.33c-.04.25-.29.96-.39.9-.08.02-.44.26-.4.42,0,0,.02.08-.06.1-.08.02-.06.1-.06.1.02.08-.03.25-.09.35-.16.03-.2.21-.2.21.05.24-.32.4-.64.47-.25-.03-.33,0-.39.09s-.12.19-.2.21c-.08.02-.06.1-.06.1.02.08-.03.25-.17.36l-.23.46c-.12.19-.18.29-.26.3-.08.02-.16.03-.14.11.02.08-.06.1-.14.11-.35-.09-.66-.02-.63.14,0,0,.02.08-.06.1-.08.02-.06.1-.06.1.02.08-.04.17-.04.17-.08.02-.14.11-.14.11l-.12.19c-.08.02-.16.03-.14.11.02.08-.06.1-.14.11-.16.03-.24.05-.3.15.02.08-.06.1-.08.02-.08.02-.32.4-.27.63-.04.17-.11.27-.28.22-.16.03-.3.15-.36.24l-.14.11c-.08.02-.14.11-.22.13-.06.1-.12.19-.3.15q-.16.03-.18.29-.03.25-.2.21c-.19-.12-.27-.11-.25-.03.02.08-.03.25-.17.36-.18.29-.32.4-.36.24,0,0-.1-.06-.25-.03q-.24.05-.13.52c.02.08-.04.17-.11.27q-.06.1.03.16c.08-.02.17.04.16-.03.08-.02.1.06.1.06.02.08-.04.17-.12.19s-.14.11-.22.13c-.06.1-.12.19-.28.22-.24.05-.28.22-.32.4.05.24-.11,1.01-.11,1.01-.08.02-.22.13-.26.3-.12.19-.26.3-.32.4l-.24.05c-.08.02-.06.1-.11.27l-.04.17-.27-.11c-.36-.17-.5-.05-.7.56-.07.43-.18.69-.26.71-.24.05-.4.42-.41.75.07.31-.13.52-.32.4-.17-.04-.24.05-.19.62.1.47.04.57-.43.67-.24.05-.31.07-.28.22.02.08-.04.17-.09.35-.06.1-.12.19-.11.27-.04.17-.44.26-.64.06q-.1-.06-.06.1c.02.08-.01.33-.07.43l-.13.52c.03.16-.11.27-.18.29-.16.03-.3.15-.42.34-.26.3-.59.7-.66.72-.08.02-.06.09-.04.17q.02.08-.06.1c-.16.03-.25-.03-.25-.03-.02-.08-.16.03-.2.21-.11.27-.09.35.02.49.03.16.15.3.08.39q-.04.17-.06.1-.03-.16-.1-.06c-.06.1-.12.19-.03.25,0,0-.04.17-.25.38-.14.11-.26.3-.25.38l-.28.22c-.23.05-.37.16-.42.34-.17.36-.29.55-.41.75-.14.11-.22.13-.41,0q-.17-.04-.23.05c-.06.1-.14.11-.3.15-.16.03-.22.13-.17.36.02.49-.05.91-.2.95l-.12.19-.11.27c-.08.02-.06.1-.04.17.02.08-.04.17-.11.27-.08.02-.14.11-.12.19,0,0,.02.08-.06.1,0,0-.12.19-.17.36-.09.35-.5,1.09-.52,1.02-.03-.16-.22.13-.25.38.03.16-.03.25-.03.25-.08.02-.2.21-.26.3-.04.17-.17.36-.17.36-.08.02-.12.19-.09.35-.01.33-.59,1.44-.9,1.51,0,0-.06.1-.04.17.02.08-.04.17-.12.19-.23.05-.28.22-.15.44.02.08-.04.17-.11.27l-.2.21-.25.38c-.03.25-.19.62-.24.79-.07.43-.33.73-.57.78-.16.03-.25.38-.21.54q.1.06.24-.05.06-.1.03.16l-.11.27c-.08.02-.26.3-.25.38,0,0-.06.1-.04.17-.06.1-.12.19-.09.35l-.11.27c-.08.02-.14.11-.18.29,0,.41-.04.58-.24.79-.14.11-.2.21-.18.29.1.06-.03.25-.18.29-.08.02-.14.11-.14.11.03.16-.14.85-.2.95-.06.1-.04.17-.09.35.03.16,0,.41-.05.5l-.21.54v.33s-.48.1-.48.1c-.25-.03-.41,0-.31.07.02.08.1.06.1.06.16-.03.32.34.37.58-.06.1-.03.25.07.31.11.14.13.22.05.23-.06.1-.04.17-.01.33.02.08-.04.17-.04.17q-.06.1.03.16c.1.06.11.14,0,.41l.06.64c.03.16,0,.41,0,.41-.06.1.19,2.01.28,2.07.1.06.15.3.2.53.07.31.12.55.21.61l.05.24c-.09.35-.02.66.23.69.08-.02.17.05.21.2.14.63.17.78.25.77.08-.02.11.14.21.2.03.16.15.3.24.36q.11.14,0,.41c-.04.17-.11.27-.03.25.08-.02.1.06.13.22.02.08.11.14.21.2.16-.03.17.04.42.4l.03.16c.1.06.11.14.13.22,0,0,.03.16.15.3.1.06.22.28.22.28.03.16.28.51.35.5,0,0,.1.06.25.03q.11.14.05.24c-.06.1-.04.17.03.16.1.06.19.12.21.2.02.08.03.16.11.14.24-.05.49-.02.57-.04.02.08.1.06.16-.03.08-.02.16-.03.44.15.19.12.67.43.97.69.38.25.68.51.7.59.02.08.13.22.22.28.1.06.21.2.22.28q.05.24.29.18.23-.05.17.04c-.04.17.05.24.29.18.08-.02.17.04.19.12.1.06.19.12.27.11.16-.03.38.25.37.58-.03.25-.01.33.07.31l.11-.27c.03-.25.17-.36.2-.21.02.08.1.06.17.04.24-.05.71.26.75.41,0,0,.1.06.25.03.1.06.19.12.21.2.02.08.03.16.11.14.08-.02.1.06.13.22s.03.16.35.09c.17.04.33.01.43.07,0,0,.1.06.17.05.24-.05.31-.07.33,0,.02.08-.04.17-.12.19-.22.13-.15.44.16.37.1.06.24-.05.24-.05.14-.11.22-.13.16-.03.02.08.11.14.22.28q.29.18.33.01c-.03-.16.03-.25.37-.16.17.04.35.09.5.05l.62.19c.27.11.46.23.54.21.17.04.19.12.15.3.03.16.05.24.15.3q.17.04.22-.13c-.07-.31.01-.33.47-.1.17.04.29.18.32.34.07.31.15.3.36.17.14-.11.22-.13.31-.07l.54.21.35.09c.02.08.1.06.17.04l.27.11c.1.06.27.11.43.07s.33.01.43.07l.35.09c.16-.03.25.03.33.01.02.08.1.06.17.04.08-.02.33.01.5.05.17.04.43.07.52.13.31-.07.47-.1.64-.06.76.08,2.28-.08,2.71-.34.06-.1.22-.13.38-.16.44-.26,1.06-.8,1.28-1.26.06-.1.2-.21.28-.22.16-.03.14-.11.11-.27s.04-.17.14-.11c.08-.02.16-.03.22-.13-.05-.23.26-.71.54-.94.14-.11.2-.21.17-.36-.03-.16.03-.25.09-.35.14-.11.26-.3.31-.48.09-.35.49-.76.96-.86q.31-.07.44.15c.03.16.15.3.15.3.16-.03.15.3,0,.41-.08.02-.06.1-.03.25.11.14.05.23-.01.33q-.12.19-.01.33c.13.22.15.3-.19.62-.12.19-.25.38-.23.46l-.18.29c-.22.13-.28.22-.23.46q.03.16-.18.29l-.4.42c-.04.17-.11.27-.18.29-.08.02-.06.09-.11.27-.06.1-.12.19-.2.21-.17-.04-.53.2-.56.45-.04.17-.03.25-.11.27-.1-.06-.16.03-.23.05.02.08-.14.11-.24.05-.17-.04-.25-.03-.51.28-.2.21-.34.32-.36.24,0,0-.08.02-.06.1-.06.09-.12.19-.36.24-.1-.06-.23.05-.23.05.03.16-.23.46-.39.49-.08.02-.17-.04-.25-.03q-.1-.06-.16.03s-.14.11-.22.13c-.3.15-.48.43-.39.49.11.14-.09.35-.32.4-.08.02-.17-.04-.17-.04q-.1-.06-.16.03c-.14.11-.38.16-.47.1q-.09-.06-.16.03l-.06.1c-.08.02-.14.11-.2.21q-.14.11-.24.05c-.17-.04-.31.07-.28.22.02.08-.06.1-.16.03-.33-.01-.41,0-.53.2-.29.55-.49.76-.87.52q-.17-.04-.24.05c-.09.35-.25.38-.77.25-.35-.09-.77-.16-.93-.13ZM72.36,89.12c.06-.1.14-.11.3-.15.09.06.16-.03.16-.03.04-.17-.08-.39-.24-.36-.08.02-.16.03-.25-.03-.11-.14-.21.54-.1.68q.1.06.14-.11ZM74.33,87.63c.04-.17,0-.41-.08-.39-.11-.14-.17-.04-.06.1.03.16-.03.25-.07.43-.14.11-.18.29-.17.37.02.08.11.14.25.03.14-.11.22-.13.13-.52ZM75.35,98.73l.11-.27c.08-.02.06-.1-.02-.08l-.2.21c-.14.11-.12.19-.03.25q.17.04.14-.11ZM77.51,81.45l.14-.11-.21-.2c-.17-.05-.29-.18-.3-.26-.03-.16-.25-.03-.22.13-.11.27.02.49.28.51.08-.02.17.04.17.04.02.08.08-.02.14-.11ZM77.31,72.96q-.17-.04-.08.02c.02.08.11.14.19.12.16-.03.04-.17-.11-.14ZM78.19,73.26c-.02-.08-.11-.14-.11-.14-.16.03-.03.25.15.3,0,0,.06-.1-.03-.16ZM78.83,73.53c-.03-.16-.21-.2-.17-.04-.04.17.07.31.13.22.08-.02.06-.1.04-.17ZM81.62,74.32q-.17-.04-.16.03c.03.16.22.28.21.2.08-.02-.03-.16-.05-.24ZM84.91,63.77c-.02-.08-.17-.04-.53.2q-.28.22-.17.36l.21.2c.16-.03.52-.61.49-.76ZM102.22,108.82c-.11-.14-.17-.04-.14.11.02.08.03.16.11.14.08-.02.11-.27.03-.25Z"/>
</svg>