<svg version="1.1" id="Layer_1" xmlns="http://www.w3.org/2000/svg" xmlns:xlink="http://www.w3.org/1999/xlink" x="0px" y="0px"
	 width="100%" viewBox="0 0 144 144" enable-background="new 0 0 144 144" xml:space="preserve">
<path fill="#000000" opacity="1.000000" stroke="none" 
	d="
M145.000000,83.000000 
	C145.000000,103.633133 145.000000,124.266266 145.000000,144.949707 
	C97.111458,144.949707 49.222847,144.949707 1.000000,144.949707 
	C1.000000,123.980286 1.000000,102.958801 1.412520,81.397316 
	C2.884566,85.391464 3.539858,90.072052 5.114751,94.419502 
	C6.763869,98.971878 8.351649,104.326561 11.762037,107.196899 
	C14.188094,109.238770 15.516680,111.651566 17.522963,113.704361 
	C19.497503,115.724693 20.040632,120.453835 25.058872,118.548729 
	C24.623291,117.756493 24.331470,117.016350 23.864826,116.410965 
	C20.829594,112.473343 16.940472,108.937637 14.931576,104.539268 
	C13.030048,100.375984 12.767006,95.345482 12.358191,90.646370 
	C11.700195,83.083031 9.916032,75.140114 11.436637,67.956383 
	C15.615502,48.214359 27.917694,33.437206 43.514038,21.133364 
	C49.858772,16.128052 57.708416,15.510215 64.928230,13.079900 
	C68.147446,11.996253 71.640091,11.256094 75.018616,11.216777 
	C81.137070,11.145575 87.263000,11.716601 93.385811,12.019507 
	C93.418419,11.542051 93.451027,11.064595 93.483635,10.587139 
	C84.558014,9.697455 76.242645,4.202344 66.909187,6.940456 
	C65.971634,6.137563 64.807228,5.465816 63.850765,5.688246 
	C61.425247,6.252311 59.061569,7.136094 56.729420,8.037494 
	C50.491463,10.448536 43.510979,11.854119 38.227833,15.624269 
	C28.053347,22.884977 18.838726,31.492239 9.257758,39.578659 
	C8.790544,39.972992 8.456321,40.696060 8.346353,41.316753 
	C6.764214,50.246857 5.231236,59.185669 3.718448,67.937294 
	C2.861566,67.326637 1.930782,66.663322 1.000000,66.000000 
	C1.000000,44.368099 1.000000,22.736200 1.000000,1.052150 
	C48.888165,1.052150 96.776405,1.052150 145.000000,1.052150 
	C145.000000,22.019705 145.000000,43.041195 144.588928,64.603447 
	C142.792938,60.970871 141.619217,56.709843 139.937653,52.659657 
	C139.041153,50.500381 137.226456,48.732525 135.897583,46.740376 
	C133.420776,43.027378 130.996155,39.279591 128.420502,35.271439 
	C127.860260,34.357079 127.429329,33.717567 126.998398,33.078060 
	C126.787247,33.214432 126.576088,33.350803 126.364929,33.487175 
	C126.882515,34.347534 127.400093,35.207890 127.966408,36.429539 
	C129.241608,39.301144 130.302963,41.909325 131.722748,44.305069 
	C138.367203,55.516838 138.472107,68.597626 136.310471,79.907295 
	C131.878036,103.097771 118.968231,121.785507 96.827110,132.554474 
	C92.203819,134.803162 87.312042,136.499802 82.249573,138.586212 
	C81.168297,138.938461 80.381439,139.155319 79.594574,139.372177 
	C79.680916,139.643036 79.767250,139.913895 79.853592,140.184753 
	C80.924835,139.817474 81.996071,139.450195 83.514801,139.051300 
	C90.292641,138.175095 97.376244,138.854126 102.798805,136.173309 
	C114.620270,130.328979 124.633224,121.672684 132.566803,110.884247 
	C134.931549,107.668541 138.384445,104.932991 139.730286,101.369888 
	C141.374161,97.017723 141.133972,91.985748 142.112030,87.332558 
	C142.443481,85.755699 144.002136,84.436783 145.000000,83.000000 
M72.999908,112.265587 
	C73.672440,105.605560 73.366463,98.657471 75.224350,92.346390 
	C78.916840,79.803352 76.727257,66.881371 78.929291,54.297451 
	C80.080620,47.717964 80.021622,40.905186 81.451035,34.404873 
	C82.172714,31.123020 81.792938,28.814457 78.996956,28.157757 
	C74.881470,27.191143 70.168510,22.623650 66.656097,26.580992 
	C64.391144,29.132862 61.793465,29.478863 59.464409,30.976526 
	C56.221024,33.062130 52.251701,34.378372 49.660671,37.056698 
	C38.410534,48.685844 29.325310,61.801620 23.926600,77.255226 
	C22.908211,80.170334 21.689871,82.842407 23.964785,85.662949 
	C27.740080,90.343758 31.377186,95.142838 35.325920,99.671112 
	C36.102665,100.561852 38.026939,100.451927 40.345474,101.036247 
	C39.186600,98.153465 38.771313,96.610153 37.994606,95.277489 
	C34.799603,89.795563 35.172245,84.381516 36.671684,78.300797 
	C38.342949,71.523239 40.790112,65.763985 45.050655,60.024628 
	C50.295231,52.959686 56.266201,46.980907 63.014629,41.585564 
	C63.653866,41.074501 64.797440,41.194256 67.125175,40.751163 
	C65.717270,57.425812 64.590630,73.483856 62.933868,89.487030 
	C61.723408,101.179207 60.646870,113.015770 54.979530,123.679489 
	C53.676785,126.130745 51.630108,130.094040 49.960873,130.076202 
	C45.421902,130.027740 40.709255,128.698578 37.947365,124.083809 
	C37.308910,123.017021 35.779625,122.483383 34.660271,121.704407 
	C35.261414,128.281097 37.667465,132.856750 42.554630,136.106552 
	C48.321625,139.941422 61.609699,138.012985 64.876045,131.944778 
	C68.099236,125.956734 70.331505,119.435310 72.999908,112.265587 
M102.968239,36.365082 
	C96.637657,46.637463 89.977318,56.724674 84.073990,67.236984 
	C78.720840,76.769569 81.535240,88.841263 87.572823,94.450256 
	C92.478180,99.007401 99.753433,101.093086 106.107124,103.990990 
	C113.563873,107.391991 117.970131,103.153053 122.883713,97.468048 
	C123.752380,96.463013 123.747711,94.703156 124.146347,93.291862 
	C123.734550,93.080391 123.322746,92.868919 122.910950,92.657448 
	C121.893227,93.964294 121.076645,95.533531 119.804596,96.508591 
	C118.359558,97.616241 116.282486,99.154221 114.872849,98.824799 
	C110.082451,97.705322 105.180916,96.384758 100.863922,94.111511 
	C96.762718,91.951881 93.394188,88.672653 92.922188,83.240601 
	C92.161255,74.483513 96.690041,67.557617 100.891975,60.880749 
	C106.652687,51.726978 113.528976,43.264042 120.097954,34.635048 
	C123.235062,30.514135 126.765602,26.692730 130.899780,21.812796 
	C130.951233,18.274889 126.933586,13.737358 120.540016,11.952538 
	C114.747208,19.786039 108.890121,27.706470 102.968239,36.365082 
M28.474892,124.748917 
	C29.144991,125.013405 29.815092,125.277885 30.485191,125.542374 
	C30.512499,125.077255 30.539804,124.612129 30.567110,124.147011 
	C29.762560,124.147011 28.958010,124.147011 28.474892,124.748917 
z"/>
<path fill="#A53231" opacity="1.000000" stroke="none" 
	d="
M1.000000,66.466118 
	C1.930782,66.663322 2.861566,67.326637 3.718448,67.937294 
	C5.231236,59.185669 6.764214,50.246857 8.346353,41.316753 
	C8.456321,40.696060 8.790544,39.972992 9.257758,39.578659 
	C18.838726,31.492239 28.053347,22.884977 38.227833,15.624269 
	C43.510979,11.854119 50.491463,10.448536 56.729420,8.037494 
	C59.061569,7.136094 61.425247,6.252311 63.850765,5.688246 
	C64.807228,5.465816 65.971634,6.137563 66.909187,6.940456 
	C76.242645,4.202344 84.558014,9.697455 93.483635,10.587139 
	C93.451027,11.064595 93.418419,11.542051 93.385811,12.019507 
	C87.263000,11.716601 81.137070,11.145575 75.018616,11.216777 
	C71.640091,11.256094 68.147446,11.996253 64.928230,13.079900 
	C57.708416,15.510215 49.858772,16.128052 43.514038,21.133364 
	C27.917694,33.437206 15.615502,48.214359 11.436637,67.956383 
	C9.916032,75.140114 11.700195,83.083031 12.358191,90.646370 
	C12.767006,95.345482 13.030048,100.375984 14.931576,104.539268 
	C16.940472,108.937637 20.829594,112.473343 23.864826,116.410965 
	C24.331470,117.016350 24.623291,117.756493 25.058872,118.548729 
	C20.040632,120.453835 19.497503,115.724693 17.522963,113.704361 
	C15.516680,111.651566 14.188094,109.238770 11.762037,107.196899 
	C8.351649,104.326561 6.763869,98.971878 5.114751,94.419502 
	C3.539858,90.072052 2.884566,85.391464 1.412520,80.928658 
	C1.000000,76.310745 1.000000,71.621490 1.000000,66.466118 
z"/>
<path fill="#A53231" opacity="1.000000" stroke="none" 
	d="
M82.543991,138.450836 
	C87.312042,136.499802 92.203819,134.803162 96.827110,132.554474 
	C118.968231,121.785507 131.878036,103.097771 136.310471,79.907295 
	C138.472107,68.597626 138.367203,55.516838 131.722748,44.305069 
	C130.302963,41.909325 129.241608,39.301144 128.127197,36.302383 
	C128.239243,35.813934 128.549805,35.546284 128.549805,35.546284 
	C130.996155,39.279591 133.420776,43.027378 135.897583,46.740376 
	C137.226456,48.732525 139.041153,50.500381 139.937653,52.659657 
	C141.619217,56.709843 142.792938,60.970871 144.588928,65.072105 
	C145.000000,70.688042 145.000000,76.376083 145.000000,82.532059 
	C144.002136,84.436783 142.443481,85.755699 142.112030,87.332558 
	C141.133972,91.985748 141.374161,97.017723 139.730286,101.369888 
	C138.384445,104.932991 134.931549,107.668541 132.566803,110.884247 
	C124.633224,121.672684 114.620270,130.328979 102.798805,136.173309 
	C97.376244,138.854126 90.292641,138.175095 83.387451,138.890411 
	C82.812599,138.761124 82.543991,138.450836 82.543991,138.450836 
z"/>
<path fill="#FFFFFF" opacity="1.000000" stroke="none" 
	d="
M72.999207,112.706741 
	C70.331505,119.435310 68.099236,125.956734 64.876045,131.944778 
	C61.609699,138.012985 48.321625,139.941422 42.554630,136.106552 
	C37.667465,132.856750 35.261414,128.281097 34.660271,121.704407 
	C35.779625,122.483383 37.308910,123.017021 37.947365,124.083809 
	C40.709255,128.698578 45.421902,130.027740 49.960873,130.076202 
	C51.630108,130.094040 53.676785,126.130745 54.979530,123.679489 
	C60.646870,113.015770 61.723408,101.179207 62.933868,89.487030 
	C64.590630,73.483856 65.717270,57.425812 67.125175,40.751163 
	C64.797440,41.194256 63.653866,41.074501 63.014629,41.585564 
	C56.266201,46.980907 50.295231,52.959686 45.050655,60.024628 
	C40.790112,65.763985 38.342949,71.523239 36.671684,78.300797 
	C35.172245,84.381516 34.799603,89.795563 37.994606,95.277489 
	C38.771313,96.610153 39.186600,98.153465 40.345474,101.036247 
	C38.026939,100.451927 36.102665,100.561852 35.325920,99.671112 
	C31.377186,95.142838 27.740080,90.343758 23.964785,85.662949 
	C21.689871,82.842407 22.908211,80.170334 23.926600,77.255226 
	C29.325310,61.801620 38.410534,48.685844 49.660671,37.056698 
	C52.251701,34.378372 56.221024,33.062130 59.464409,30.976526 
	C61.793465,29.478863 64.391144,29.132862 66.656097,26.580992 
	C70.168510,22.623650 74.881470,27.191143 78.996956,28.157757 
	C81.792938,28.814457 82.172714,31.123020 81.451035,34.404873 
	C80.021622,40.905186 80.080620,47.717964 78.929291,54.297451 
	C76.727257,66.881371 78.916840,79.803352 75.224350,92.346390 
	C73.366463,98.657471 73.672440,105.605560 72.999207,112.706741 
z"/>
<path fill="#FFFFFF" opacity="1.000000" stroke="none" 
	d="
M103.000633,35.995991 
	C108.890121,27.706470 114.747208,19.786039 120.540016,11.952538 
	C126.933586,13.737358 130.951233,18.274889 130.899780,21.812796 
	C126.765602,26.692730 123.235062,30.514135 120.097954,34.635048 
	C113.528976,43.264042 106.652687,51.726978 100.891975,60.880749 
	C96.690041,67.557617 92.161255,74.483513 92.922188,83.240601 
	C93.394188,88.672653 96.762718,91.951881 100.863922,94.111511 
	C105.180916,96.384758 110.082451,97.705322 114.872849,98.824799 
	C116.282486,99.154221 118.359558,97.616241 119.804596,96.508591 
	C121.076645,95.533531 121.893227,93.964294 122.910950,92.657448 
	C123.322746,92.868919 123.734550,93.080391 124.146347,93.291862 
	C123.747711,94.703156 123.752380,96.463013 122.883713,97.468048 
	C117.970131,103.153053 113.563873,107.391991 106.107124,103.990990 
	C99.753433,101.093086 92.478180,99.007401 87.572823,94.450256 
	C81.535240,88.841263 78.720840,76.769569 84.073990,67.236984 
	C89.977318,56.724674 96.637657,46.637463 103.000633,35.995991 
z"/>
<path fill="#A53231" opacity="1.000000" stroke="none" 
	d="
M28.314175,124.447968 
	C28.958010,124.147011 29.762560,124.147011 30.567110,124.147011 
	C30.539804,124.612129 30.512499,125.077255 30.485191,125.542374 
	C29.815092,125.277885 29.144991,125.013405 28.314175,124.447968 
z"/>
<path fill="#A53231" opacity="1.000000" stroke="none" 
	d="
M128.078461,35.941093 
	C127.400093,35.207890 126.882515,34.347534 126.364929,33.487175 
	C126.576088,33.350803 126.787247,33.214432 126.998398,33.078060 
	C127.429329,33.717567 127.860260,34.357079 128.420502,35.271439 
	C128.549805,35.546284 128.239243,35.813934 128.078461,35.941093 
z"/>
<path fill="#A53231" opacity="1.000000" stroke="none" 
	d="
M82.939957,138.922012 
	C81.996071,139.450195 80.924835,139.817474 79.853592,140.184753 
	C79.767250,139.913895 79.680916,139.643036 79.594574,139.372177 
	C80.381439,139.155319 81.168297,138.938461 82.249573,138.586212 
	C82.543991,138.450836 82.812599,138.761124 82.939957,138.922012 
z"/>
</svg>